<svg width="152" height="152" viewBox="0 0 152 152" fill="none" xmlns="http://www.w3.org/2000/svg">
<circle cx="76" cy="76" r="75.5" fill="white" stroke="white"/>
<g clip-path="url(#clip0_942_2598)">
<path d="M74.3281 24.6311L73.4297 27.5608L70.0703 27.678L66.7109 27.7952L69.25 29.7092C70.6562 30.7639 71.8281 31.6624 71.9062 31.7405C71.9844 31.7795 71.5938 33.1858 71.0469 34.8655C70.5 36.5452 70.0312 37.9905 70.0312 38.0686C70.0312 38.1467 70.6953 37.717 71.5156 37.092C72.2969 36.467 73.5078 35.5686 74.1719 35.0999L75.3828 34.2795L78.1562 36.2327L80.9297 38.1858L79.9922 35.3733C79.4453 33.8108 79.0156 32.3264 79.0156 32.053C79.0156 31.7405 80.0703 30.803 81.3594 29.8655C82.6484 28.967 83.7031 28.0686 83.7031 27.9124C83.7031 27.7561 82.3359 27.5999 80.6172 27.5999C77.1797 27.5999 77.4922 27.8342 76.2422 23.8889C75.9688 23.0295 75.6172 22.2092 75.5 22.0139C75.3438 21.8577 74.8359 23.0295 74.3281 24.6311Z" fill="#080325"/>
<path d="M68.8203 41.3107C65.3047 43.6935 59.875 47.3263 56.789 49.3966C51.164 53.1857 51.164 53.1857 52.6484 53.3028C53.9765 53.42 54.875 52.9122 62.375 47.8732C66.9062 44.7872 71.5937 41.6232 72.7656 40.8028C73.9375 39.9825 75.1484 39.3185 75.4219 39.3185C75.6953 39.3185 80.6172 42.4825 86.3594 46.3888C95.9297 52.8341 96.9453 53.42 98.3125 53.3028C99.7578 53.1857 99.4453 52.9513 87.7265 45.0607C81.125 40.6075 75.5781 36.9747 75.4609 36.9747C75.3437 36.9747 72.375 38.9278 68.8203 41.3107Z" fill="#080325"/>
<path d="M67.6873 46.5842C63.742 49.2795 59.992 51.7795 59.4061 52.1311C58.8202 52.4827 58.3123 52.9124 58.3123 53.0686C58.3123 53.2249 66.0858 53.3811 75.578 53.3811C90.4217 53.3811 92.7655 53.303 92.2967 52.8342C91.1639 51.7795 75.8905 41.6624 75.4217 41.6624C75.1483 41.6624 71.6717 43.8889 67.6873 46.5842Z" fill="#080325"/>
<path d="M49.0546 55.2561C48.4687 55.3342 48.1562 55.6467 48.1562 56.1545C48.1562 56.8967 48.7421 56.8967 75.4999 56.8967H102.844V55.9983V55.0608L76.3984 55.0999C61.828 55.1389 49.5234 55.178 49.0546 55.2561Z" fill="#080325"/>
<path d="M49.3283 70.9591V79.9825L51.5939 79.8654L53.8205 79.7482L54.0158 76.4279L54.2111 73.1075H57.4533H60.6564V71.4279V69.7872H57.3361H54.0158V67.6388V65.4904H57.7267H61.4377V63.7325V61.9747H55.383H49.3283V70.9591Z" fill="#080325"/>
<path d="M64.172 70.9203V79.9437H68.1954C73.5079 79.9437 75.8126 79.2797 77.5704 77.1703C79.2501 75.2562 79.9532 72.8344 79.7188 69.8656C79.5235 66.975 78.3907 64.8265 76.3204 63.3422C74.6798 62.2094 74.5235 62.1703 69.4063 62.0531L64.172 61.8969V70.9203ZM73.7813 66.8187C75.0313 68.0687 75.1095 68.3422 75.1095 70.6078C75.1095 74.6703 73.4298 76.4281 69.5626 76.4281H68.4688V70.9594V65.4906H70.461C72.2188 65.4906 72.6095 65.6469 73.7813 66.8187Z" fill="#080325"/>
<path d="M82.5312 70.9591V79.9435H84.4844H86.3984L86.5156 74.3575L86.6328 68.8107L88.7813 74.3966L90.9297 79.9825L92.2578 79.8654C93.5859 79.7482 93.5859 79.7482 95.6172 74.3575C96.75 71.3888 97.8047 68.8497 97.9219 68.7325C98.0391 68.5763 98.1563 71.0763 98.1563 74.2013V79.9435H100.109H102.063V70.9591V61.9747H99.4063H96.75L94.6797 67.5216C93.5078 70.6075 92.4531 73.2247 92.3359 73.381C92.1797 73.5372 91.0859 71.0763 89.9141 67.9122L87.7266 62.17L85.1094 62.0529L82.5312 61.9357V70.9591Z" fill="#080325"/>
<path d="M48.1562 86.3889V87.3655H75.4999H102.844V86.3889V85.4124H75.4999H48.1562V86.3889Z" fill="#080325"/>
<path d="M45.0312 89.9045V90.8811H75.5H105.969V89.9045V88.928H75.5H45.0312V89.9045Z" fill="#080325"/>
<path d="M41.1249 93.4202V94.3967L75.4218 94.3186C109.367 94.2014 109.68 94.2014 109.68 93.4202C109.68 92.6389 109.367 92.6389 75.4218 92.5217L41.1249 92.4436V93.4202Z" fill="#080325"/>
<path d="M38 96.9358V97.9124H75.5H113V96.9358V95.9592H75.5H38V96.9358Z" fill="#080325"/>
</g>
<defs>
<clipPath id="clip0_942_2598">
<rect width="75" height="75.9124" fill="white" transform="translate(38 22)"/>
</clipPath>
</defs>
</svg>
