<svg xmlns="http://www.w3.org/2000/svg" version="1.0" width="252.000000pt" height="226.000000pt" viewBox="0 0 252.000000 226.000000" preserveAspectRatio="xMidYMid meet">

<g transform="translate(0.000000,226.000000) scale(0.100000,-0.100000)" fill="#ffffff" stroke="none">
<path d="M1220 2066 l-23 -75 -86 -3 -86 -3 65 -49 c36 -27 66 -50 68 -52 2 -1 -8 -37 -22 -80 -14 -43 -26 -80 -26 -82 0 -2 17 9 38 25 20 16 51 39 68 51 l31 21 71 -50 71 -50 -24 72 c-14 40 -25 78 -25 85 0 8 27 32 60 56 33 23 60 46 60 50 0 4 -35 8 -79 8 -88 0 -80 -6 -112 95 -7 22 -16 43 -19 48 -4 4 -17 -26 -30 -67z" fill="#ffffff"/>
<path d="M1079 1639 c-90 -61 -229 -154 -308 -207 -144 -97 -144 -97 -106 -100 34 -3 57 10 249 139 116 79 236 160 266 181 30 21 61 38 68 38 7 0 133 -81 280 -181 245 -165 271 -180 306 -177 37 3 29 9 -271 211 -169 114 -311 207 -314 207 -3 0 -79 -50 -170 -111z" fill="#ffffff"/>
<path d="M1050 1504 c-101 -69 -197 -133 -212 -142 -15 -9 -28 -20 -28 -24 0 -4 199 -8 442 -8 380 0 440 2 428 14 -29 27 -420 286 -432 286 -7 0 -96 -57 -198 -126z" fill="#ffffff"/>
<path d="M573 1282 c-15 -2 -23 -10 -23 -23 0 -19 15 -19 700 -19 l700 0 0 23 0 24 -677 -1 c-373 -1 -688 -2 -700 -4z" fill="#ffffff"/>
<path d="M580 880 l0 -231 58 3 57 3 5 85 5 85 83 0 82 0 0 43 0 42 -85 0 -85 0 0 55 0 55 95 0 95 0 0 45 0 45 -155 0 -155 0 0 -230z" fill="#ffffff"/>
<path d="M960 881 l0 -231 103 0 c136 0 195 17 240 71 43 49 61 111 55 187 -5 74 -34 129 -87 167 -42 29 -46 30 -177 33 l-134 4 0 -231z m246 105 c32 -32 34 -39 34 -97 0 -104 -43 -149 -142 -149 l-28 0 0 140 0 140 51 0 c45 0 55 -4 85 -34z" fill="#ffffff"/>
<path d="M1430 880 l0 -230 50 0 49 0 3 143 3 142 55 -143 55 -143 34 3 c34 3 34 3 86 141 29 76 56 141 59 144 3 4 6 -60 6 -140 l0 -147 50 0 50 0 0 230 0 230 -68 0 -68 0 -53 -142 c-30 -79 -57 -146 -60 -150 -4 -4 -32 59 -62 140 l-56 147 -67 3 -66 3 0 -231z" fill="#ffffff"/>
<path d="M550 485 l0 -25 700 0 700 0 0 25 0 25 -700 0 -700 0 0 -25z" fill="#ffffff"/>
<path d="M470 395 l0 -25 780 0 780 0 0 25 0 25 -780 0 -780 0 0 -25z" fill="#ffffff"/>
<path d="M370 305 l0 -25 878 2 c869 3 877 3 877 23 0 20 -8 20 -877 23 l-878 2 0 -25z" fill="#ffffff"/>
<path d="M290 215 l0 -25 960 0 960 0 0 25 0 25 -960 0 -960 0 0 -25z" fill="#ffffff"/>
</g>
</svg>