<svg width="32" height="33" viewBox="0 0 32 33" fill="none" xmlns="http://www.w3.org/2000/svg">
<g clip-path="url(#clip0_187_2448)">
<path d="M15.5 1.12261L15.1167 2.37261L13.6833 2.42261L12.25 2.47261L13.3333 3.28928C13.9333 3.73928 14.4333 4.12261 14.4667 4.15594C14.5 4.17261 14.3333 4.77261 14.1 5.48928C13.8667 6.20594 13.6667 6.82261 13.6667 6.85594C13.6667 6.88928 13.95 6.70594 14.3 6.43928C14.6333 6.17261 15.15 5.78928 15.4333 5.58928L15.95 5.23928L17.1333 6.07261L18.3167 6.90594L17.9167 5.70594C17.6833 5.03928 17.5 4.40594 17.5 4.28928C17.5 4.15594 17.95 3.75594 18.5 3.35594C19.05 2.97261 19.5 2.58928 19.5 2.52261C19.5 2.45594 18.9167 2.38928 18.1833 2.38928C16.7167 2.38928 16.85 2.48928 16.3167 0.805944C16.2 0.439278 16.05 0.0892777 16 0.00594425C15.9333 -0.0607224 15.7167 0.439278 15.5 1.12261Z" fill="#080325"/>
<path d="M13.15 8.23928C11.65 9.25595 9.33332 10.806 8.01666 11.6893C5.61666 13.306 5.61666 13.306 6.24999 13.356C6.81666 13.406 7.19999 13.1893 10.4 11.0393C12.3333 9.72262 14.3333 8.37262 14.8333 8.02262C15.3333 7.67262 15.85 7.38929 15.9667 7.38929C16.0833 7.38929 18.1833 8.73928 20.6333 10.406C24.7167 13.156 25.15 13.406 25.7333 13.356C26.35 13.306 26.2167 13.206 21.2167 9.83929C18.4 7.93928 16.0333 6.38929 15.9833 6.38929C15.9333 6.38929 14.6667 7.22262 13.15 8.23928Z" fill="#080325"/>
<path d="M12.6666 10.4893C10.9833 11.6393 9.38329 12.7059 9.13329 12.8559C8.88329 13.0059 8.66663 13.1893 8.66663 13.2559C8.66663 13.3226 11.9833 13.3893 16.0333 13.3893C22.3666 13.3893 23.3666 13.3559 23.1666 13.1559C22.6833 12.7059 16.1666 8.38928 15.9666 8.38928C15.85 8.38928 14.3666 9.33928 12.6666 10.4893Z" fill="#080325"/>
<path d="M4.71665 14.1893C4.46665 14.2226 4.33331 14.3559 4.33331 14.5726C4.33331 14.8893 4.58331 14.8893 16 14.8893H27.6666V14.5059V14.1059L16.3833 14.1226C10.1666 14.1393 4.91665 14.1559 4.71665 14.1893Z" fill="#080325"/>
<path d="M4.83337 20.8893V24.7393L5.80004 24.6893L6.75004 24.6393L6.83337 23.2226L6.91671 21.8059H8.30004H9.66671V21.0893V20.3893H8.25004H6.83337V19.4726V18.5559H8.41671H10V17.8059V17.0559H7.41671H4.83337V20.8893Z" fill="#080325"/>
<path d="M11.1667 20.8727V24.7227H12.8834C15.15 24.7227 16.1334 24.4393 16.8834 23.5393C17.6 22.7227 17.9 21.6893 17.8 20.4227C17.7167 19.1893 17.2334 18.2727 16.35 17.6393C15.65 17.156 15.5834 17.1393 13.4 17.0893L11.1667 17.0227V20.8727ZM15.2667 19.1227C15.8 19.656 15.8334 19.7727 15.8334 20.7393C15.8334 22.4727 15.1167 23.2227 13.4667 23.2227H13V20.8893V18.556H13.85C14.6 18.556 14.7667 18.6227 15.2667 19.1227Z" fill="#080325"/>
<path d="M19 20.8893V24.7226H19.8333H20.65L20.7 22.3393L20.75 19.9726L21.6667 22.3559L22.5833 24.7393L23.15 24.6893C23.7167 24.6393 23.7167 24.6393 24.5833 22.3393C25.0667 21.0726 25.5167 19.9893 25.5667 19.9393C25.6167 19.8726 25.6667 20.9393 25.6667 22.2726V24.7226H26.5H27.3333V20.8893V17.0559H26.2H25.0667L24.1833 19.4226C23.6833 20.7393 23.2333 21.8559 23.1833 21.9226C23.1167 21.9893 22.65 20.9393 22.15 19.5893L21.2167 17.1393L20.1 17.0893L19 17.0393V20.8893Z" fill="#080325"/>
<path d="M4.33331 27.4726V27.8893H16H27.6666V27.4726V27.0559H16H4.33331V27.4726Z" fill="#080325"/>
<path d="M3 28.9726V29.3893H16H29V28.9726V28.5559H16H3V28.9726Z" fill="#080325"/>
<path d="M1.33331 30.4726V30.8893L15.9666 30.8559C30.45 30.8059 30.5833 30.8059 30.5833 30.4726C30.5833 30.1393 30.45 30.1393 15.9666 30.0893L1.33331 30.0559V30.4726Z" fill="#080325"/>
<path d="M0 31.9726V32.3893H16H32V31.9726V31.5559H16H0V31.9726Z" fill="#080325"/>
</g>
<defs>
<clipPath id="clip0_187_2448">
<rect width="32" height="32.3893" fill="white"/>
</clipPath>
</defs>
</svg>
